<?xml version="1.0" standalone="no"?>
<!DOCTYPE svg PUBLIC "-//W3C//DTD SVG 20010904//EN"
 "http://www.w3.org/TR/2001/REC-SVG-20010904/DTD/svg10.dtd">
<svg version="1.0" xmlns="http://www.w3.org/2000/svg"
 width="512.000000pt" height="512.000000pt" viewBox="0 0 512.000000 512.000000"
 preserveAspectRatio="xMidYMid meet">
<metadata>
Created by potrace 1.11, written by Peter Selinger 2001-2013
</metadata>
<g transform="translate(0.000000,512.000000) scale(0.100000,-0.100000)"
fill="#000000" stroke="none">
<path d="M474 2856 c-265 -86 -289 -453 -39 -576 71 -35 199 -36 265 -1 61 32
117 86 148 146 22 43 26 63 26 135 0 97 -19 146 -83 213 -77 82 -213 117 -317
83z"/>
<path d="M1213 2856 c-171 -54 -263 -267 -184 -428 112 -233 438 -235 559 -4
23 44 27 63 27 136 0 73 -4 92 -27 136 -72 137 -231 205 -375 160z"/>
<path d="M2514 2850 c-29 -11 -72 -39 -97 -61 -137 -120 -137 -338 0 -458 154
-136 388 -92 485 91 19 36 23 58 23 138 0 108 -17 152 -84 219 -83 83 -221
113 -327 71z"/>
<path d="M4444 2850 c-169 -67 -249 -264 -171 -422 100 -203 358 -237 510 -68
134 149 86 384 -97 477 -70 36 -171 41 -242 13z"/>
</g>
</svg>
