<!-- Generator: Adobe Illustrator 25.2.0, SVG Export Plug-In  -->
<svg version="1.1" xmlns="http://www.w3.org/2000/svg" xmlns:xlink="http://www.w3.org/1999/xlink" x="0px" y="0px" width="568.1px"
	 height="150.2px" viewBox="0 0 568.1 150.2" style="overflow:visible;enable-background:new 0 0 568.1 150.2;"
	 xml:space="preserve">
<style type="text/css">
	.st0{opacity:0.9746;}
	.st1{fill-rule:evenodd;clip-rule:evenodd;fill:#FFFFFF;}
	.st2{opacity:0.405;fill-rule:evenodd;clip-rule:evenodd;fill:#FFFFFF;enable-background:new    ;}
	.st3{fill:#FFFFFF;}
</style>
<defs>
</defs>
<desc>Created with Sketch.</desc>
<g id="Branding_1_">
	<g id="Logo-Blue-Background_1_" transform="translate(-436.000000, -387.000000)">
		<g id="Logo_1_" transform="translate(435.000000, 387.000000)">
			<g id="Monogram_1_" transform="translate(0.000000, 23.000000)" class="st0">
				<g>
					<path id="Combined-Shape-Copy_1_" class="st1" d="M85.2,86.5V45.3c0-1.5-1.2-2.7-2.7-2.7H41.5V0H125c1.5,0,2.7,1.2,2.7,2.7
						v83.9H85.2z"/>
					<path id="Rectangle-Copy-6_1_" class="st2" d="M41.5,0v42.6H2.3C1.6,42.6,1,42,1,41.3c0-0.4,0.1-0.7,0.4-0.9L41.5,0z"/>
					<path id="Rectangle-Copy-7_1_" class="st2" d="M85.2,125.9V86.5h42.4l-40.1,40.3c-0.5,0.5-1.4,0.5-1.9,0
						C85.4,126.6,85.2,126.3,85.2,125.9z"/>
					<path id="Rectangle-Copy-8_1_" class="st2" d="M41.5,42.6h42.4c0.7,0,1.3,0.6,1.3,1.3v42.6H44.2c-1.5,0-2.7-1.2-2.7-2.7V42.6z"
						/>
				</g>
			</g>
			<path id="strapi_1_" class="st3" d="M291,52.4h-16.8v31.8c0,2.6,0.7,4.6,2,5.8c1.3,1.2,3.3,1.9,5.8,2.1c2.3,0.1,5.2,0.1,8.5,0
				c0.1,0,0.3,0,0.5,0c0.2,0,0.5,0.2,0.5,0.4c0,0,0,0,0,0v17c0,0.2-0.2,0.4-0.4,0.4c-0.1,0-0.2,0-0.3,0c-13.1,1.4-22.4,0.1-27.9-3.9
				c-5.5-4.1-8.3-11.4-8.3-21.8V52.4h-12.8c-0.2,0-0.4-0.2-0.4-0.5v-18c0-0.2,0.2-0.5,0.4-0.5h12.8V20.8c0-0.4,0.2-0.7,0.5-0.8
				l18.5-8.2c0.2-0.1,0.5,0,0.6,0.2c0,0.1,0,0.1,0,0.2v21.2H291c0.2,0,0.5,0.2,0.5,0.5v18C291.4,52.2,291.2,52.4,291,52.4z
				 M327.1,46.6c1.8-4.9,4.9-8.6,9.1-11c3.9-2.2,8.1-3.5,12.8-3.6c0.2,0,0.5,0,0.9,0c0.2,0,0.5,0.2,0.5,0.4c0,0,0,0,0,0v20.7
				c0,0.4-0.3,0.7-0.7,0.7c0,0,0,0-0.1,0l0,0c-5.7-0.5-10.8,0.7-15.3,3.8c-4.7,3.2-7.1,8.4-7.1,15.7v36.1c0,0.2-0.2,0.4-0.5,0.4
				h-18.8c-0.2,0-0.5-0.2-0.5-0.4V33.9c0-0.2,0.2-0.5,0.5-0.5h18.8c0.2,0,0.5,0.2,0.5,0.5V46.6z M420,33.5h18.8
				c0.2,0,0.5,0.2,0.5,0.5v75.5c0,0.2-0.2,0.4-0.5,0.4H420c-0.2,0-0.5-0.2-0.5-0.4v-8.6c-5.9,7.4-14.2,11.2-24.8,11.2
				c-10.2,0-18.9-3.9-26.1-11.7S357.7,83,357.7,71.7s3.6-20.9,10.9-28.6s16-11.7,26.1-11.7c10.7,0,18.9,3.7,24.8,11.2v-8.6
				C419.6,33.7,419.8,33.5,420,33.5z M383.3,87.2c4,4,9,6,15.1,6s11.1-2,15.2-6c4-4,6-9.2,6-15.5s-2-11.5-6-15.5c-4-4-9.1-6-15.2-6
				s-11.1,2-15.1,6s-5.9,9.2-5.9,15.5S379.3,83.2,383.3,87.2z M498.3,31.3c10.3,0,19,3.9,26.3,11.7c7.3,7.8,10.9,17.3,10.9,28.6
				s-3.6,20.9-10.9,28.6c-7.3,7.8-16,11.7-26.3,11.7c-10.7,0-18.9-3.7-24.7-11.2v39.1c0,0.2-0.2,0.4-0.4,0.4h-18.8
				c-0.2,0-0.5-0.2-0.5-0.4v-106c0-0.2,0.2-0.5,0.5-0.5h18.8c0.2,0,0.4,0.2,0.4,0.5v8.6C479.4,35,487.6,31.3,498.3,31.3z
				 M479.6,87.2c4,4,9,6,15.1,6c6.1,0,11.1-2,15.2-6c4-4,6-9.2,6-15.5s-2-11.5-6-15.5c-4-4-9.1-6-15.2-6c-6.1,0-11.1,2-15.1,6
				c-4,4-5.9,9.2-5.9,15.5S475.6,83.2,479.6,87.2z M556.9,24.3c-3.3,0-6.1-1.2-8.5-3.6c-2.4-2.4-3.6-5.2-3.6-8.5s1.2-6.1,3.6-8.6
				c2.4-2.4,5.2-3.7,8.5-3.7c3.4,0,6.2,1.2,8.6,3.7c2.4,2.4,3.6,5.3,3.6,8.6s-1.2,6.1-3.6,8.5C563.2,23.1,560.3,24.3,556.9,24.3z
				 M547.2,109.4V33.9c0-0.2,0.2-0.5,0.5-0.5h18.8c0.2,0,0.5,0.2,0.5,0.5v75.5c0,0.2-0.2,0.4-0.5,0.4h-18.8
				C547.4,109.8,547.2,109.6,547.2,109.4z M195.1,55.2c0,2,1.3,3.7,4,5s6,2.4,9.8,3.4c3.9,1,7.7,2.2,11.6,3.7
				c3.9,1.5,7.1,3.9,9.8,7.4c2.7,3.5,4,7.8,4,13c0,7.8-2.9,13.9-8.8,18.1c-5.8,4.2-13.1,6.3-21.9,6.3c-15.3,0-25.8-5.8-31.6-17.4
				c0-0.1-0.1-0.2-0.2-0.4c-0.1-0.2,0-0.5,0.2-0.6c0,0,0,0,0,0l16.5-7.3c0.4-0.2,0.9,0,1.2,0.4c0,0,0,0,0,0
				c2.6,4.9,7.2,7.4,13.9,7.4c7,0,10.5-2.2,10.5-6.6c0-2-1.3-3.7-4-5c-2.7-1.3-6-2.4-9.8-3.4c-3.9-1-7.7-2.3-11.6-3.8
				s-7.1-3.9-9.8-7.3c-2.7-3.3-4-7.5-4-12.5c0-7.5,2.8-13.5,8.3-17.8s12.4-6.5,20.6-6.5c6.2,0,11.8,1.4,16.9,4.2
				c4.6,2.5,8.3,5.9,11.1,10.4c0.1,0.2,0.3,0.5,0.6,1c0.1,0.2,0.1,0.5-0.2,0.6c0,0,0,0,0,0l-16.6,7.4c-0.3,0.1-0.6,0-0.8-0.2
				c-2.5-3.8-6.2-5.7-11-5.7c-2.5,0-4.6,0.6-6.3,1.7C196,51.7,195.1,53.2,195.1,55.2z"/>
		</g>
	</g>
</g>
</svg>
