<svg xmlns="http://www.w3.org/2000/svg" width="278.52" height="75.52" viewBox="0 0 278.52 75.52">
  <defs>
    <style>
      .a {
        fill: none;
      }

      .b {
        fill: #fff;
      }
    </style>
  </defs>
  <g>
    <rect class="a" width="278.52" height="75.52"/>
    <g>
      <g>
        <path class="b" d="M25.49,23.68l1.07-5.8c.41-2.6-.89-3.55-2.9-3.55a3.8,3.8,0,0,0-4.09,3.55L19,20.72c-.36,2.13.06,3.32,1.84,4.44l4.38,2.73c3.67,2.31,5.68,4.08,4.91,8.29l-1.07,6C28,48.55,24.25,50.8,17.38,50.8h-.12c-5.68,0-9.88-2.19-8.76-8.64l1.3-7.23h6.75l-1.12,6.28c-.42,2.54.83,3.67,2.9,3.67a4,4,0,0,0,4.2-3.67l.6-3.26c.41-2.25-.12-3.43-2-4.56l-4.32-2.72c-3.2-2-5.51-4.62-4.86-8.29l.95-5.45c1.13-6.15,5.45-8.52,11.72-8.52h.12c5.09,0,9.77,2.37,8.65,8.52l-1.19,6.75Z" transform="translate(0 -0.9)"/>
        <path class="b" d="M57,14.92H50.06L43.85,50.33H37L43.2,14.92H36.27l1.07-6H58.06Z" transform="translate(0 -0.9)"/>
        <path class="b" d="M81.21,17.65l-1.31,7.4c-.71,4.08-2.66,6.57-5.8,7.81l2.78,17.47h-6.8L67.77,33.81H64.1L61.2,50.33H54.33L61.61,8.88H72.33C78,8.88,82.33,11.37,81.21,17.65ZM71,14.92H67.41l-2.25,13h3.61c2.25,0,3.91-.83,4.44-3.79l1-5.39C74.69,15.75,73.27,14.92,71,14.92Z" transform="translate(0 -0.9)"/>
        <path class="b" d="M95.89,50.33l.18-9.24H88.43l-3.08,9.24H78.54l15-41.45h8.65l.53,41.45Zm.24-14.92L96.48,17,90.32,35.41Z" transform="translate(0 -0.9)"/>
        <path class="b" d="M115.31,50.33h-6.87l2.61-14.75-3.67-26.7h7l1.25,19.24,8-19.24h7.28l-13,26.7Z" transform="translate(0 -0.9)"/>
        <path class="b" d="M162.85,17.65l-1.36,7.87c-1.13,6.27-5.09,8.76-12,8.76h-3.85l-2.84,16H136l7.28-41.45H154C159.65,8.88,164,11.37,162.85,17.65Zm-7,1.06c.53-3-.89-3.79-3.14-3.79h-3.61l-2.31,13.32h3.61c2.25,0,3.91-.83,4.44-3.79Z" transform="translate(0 -0.9)"/>
        <path class="b" d="M179.07,8.41h.48c5.68,0,9.94,2.49,8.88,8.76L184.05,42c-1.13,6.27-5.09,8.76-12,8.76h-.48c-5.68,0-10-2.49-8.88-8.76l4.38-24.87C168.24,10.84,172.21,8.41,179.07,8.41Zm-6.15,36.35c2.25,0,3.9-.83,4.44-3.79l4-22.73c.48-3-.89-3.79-3.13-3.79s-4,.83-4.45,3.79l-4,22.73C169.25,43.93,170.67,44.76,172.92,44.76Z" transform="translate(0 -0.9)"/>
        <path class="b" d="M188.49,50.33l7.28-41.45h6.87l-7.28,41.45Z" transform="translate(0 -0.9)"/>
        <path class="b" d="M201.51,50.33,208.8,8.88h6.75l4.32,25.64,4.5-25.64h6.27l-7.28,41.45H217l-4.44-26.94-4.74,26.94Z" transform="translate(0 -0.9)"/>
        <path class="b" d="M253.85,14.92h-6.93l-6.21,35.41h-6.87l6.22-35.41h-6.93l1.07-6h20.72Z" transform="translate(0 -0.9)"/>
        <path class="b" d="M268.54,23.68l1.06-5.8c.42-2.6-.89-3.55-2.9-3.55a3.79,3.79,0,0,0-4.08,3.55l-.54,2.84c-.35,2.13.06,3.32,1.84,4.44l4.38,2.73C272,30.2,274,32,273.21,36.18l-1.06,6c-1.13,6.39-4.86,8.64-11.73,8.64h-.11c-5.69,0-9.89-2.19-8.77-8.64l1.31-7.23h6.75l-1.13,6.28c-.41,2.54.83,3.67,2.9,3.67a4,4,0,0,0,4.21-3.67l.59-3.26c.41-2.25-.12-3.43-2-4.56l-4.32-2.72c-3.2-2-5.5-4.62-4.85-8.29l.94-5.45c1.13-6.15,5.45-8.52,11.73-8.52h.12c5.09,0,9.76,2.37,8.64,8.52l-1.18,6.75Z" transform="translate(0 -0.9)"/>
      </g>
      <circle class="b" cx="142.72" cy="60.63" r="7.48"/>
      <circle class="b" cx="16.04" cy="60.63" r="7.48"/>
      <circle class="b" cx="259.65" cy="60.63" r="7.48"/>
      <circle class="b" cx="64.31" cy="60.63" r="7.48"/>
    </g>
  </g>
</svg>
